<svg width="300" height="353" xmlns="http://www.w3.org/2000/svg"><path d="M154.482 19.093c74.282 2.546 130.633 67.461 124.23 141.287h-17.93v-10.183c0-52.187-32.018-98.01-79.405-118.376 44.825 28.003 65.317 77.645 60.194 128.559H21.288C14.885 86.554 71.236 21.639 145.518 19.093c-3.843-1.273-6.404-5.092-6.404-8.91C139.114 5.09 144.237 0 149.36 0c6.403 0 10.245 5.091 10.245 10.183 0 3.818-2.561 7.637-5.123 8.91zM296.17 177.739H3.83c-5.107 0-5.107-11.419 0-11.419h292.34c5.107 0 5.107 11.419 0 11.419zm-66.348 127.2c-4.406 3.32-8.606 4.98-12.599 4.98-3.14 0-5.633-.597-7.477-1.791-1.845-1.195-3.29-2.19-4.337-2.987-1.047-.796-2.119-1.879-3.216-3.248a1333.298 1333.298 0 0 0-2.729-3.397c-.723-.896-1.545-2.14-2.467-3.733a417.991 417.991 0 0 0-1.982-3.397c-.399-.672-.985-1.767-1.757-3.285-.773-1.518-1.21-2.352-1.309-2.502a333.18 333.18 0 0 1-2.99 5.974 333.163 333.163 0 0 0-2.992 5.973c-.897 1.841-1.72 3.521-2.467 5.04a318.227 318.227 0 0 0-1.833 3.77c-.473.995-.735 1.518-.785 1.568-.349.796-.847 1.194-1.495 1.194l-4.786-1.045c-1.445-.15-2.642-1.07-3.589-2.763-.25-.448-.411-.721-.486-.82a.604.604 0 0 1-.112-.374c0-.15.05-.361.15-.635.099-.274.249-.647.448-1.12.2-.473.374-.958.523-1.456l.001-.002c-.197.114-.397.227-.599.338a72.503 72.503 0 0 1-10.543 4.741c-7.428 2.738-13.746 4.107-18.956 4.107-5.21 0-9.908-1.705-14.095-5.115-1.794-1.46-3.204-3.113-4.23-4.958-2.034 2.204-4.487 4.131-7.36 5.78-5.334 3.061-9.97 4.592-13.909 4.592-3.938 0-7.328-1.32-10.169-3.958-2.842-2.638-4.262-5.326-4.262-8.063 0-2.738 1.37-6.72 4.112-11.946 2.742-5.227 5.484-10.055 8.226-14.485 2.742-4.43 4.112-6.831 4.112-7.205 0-.373-.51-1.107-1.532-2.202s-1.533-1.904-1.533-2.427c0-.523 1.034-1.891 3.103-4.106s4.586-4.405 7.552-6.57c2.966-2.166 5.234-3.248 6.805-3.248 1.57 0 2.978.696 4.225 2.09 1.246 1.394 1.869 2.663 1.869 3.808s-5.932 11.92-17.797 32.329c-.15.299-.56.958-1.233 1.978a41.258 41.258 0 0 0-1.57 2.539c-.375.672-.81 1.48-1.31 2.427-.996 1.99-1.495 3.658-1.495 5.002 0 1.692 1.147 2.538 3.44 2.538s4.673-.783 7.14-2.351c2.469-1.568 4.6-3.298 6.394-5.19a198.245 198.245 0 0 1 3.357-3.525c.485-4.238 1.784-8.476 3.896-12.714 2.742-5.5 6.27-10.328 10.581-14.484 4.312-4.156 9.322-7.529 15.03-10.117 5.708-2.588 11.354-3.883 16.937-3.883 2.692 0 5.11.772 7.253 2.315 2.144 1.543 3.215 3.659 3.215 6.346 0 2.688-1.333 5.911-4 9.67-2.667 3.757-5.371 5.636-8.113 5.636-3.19 0-4.786-1.518-4.786-4.554 0-.797.748-2.215 2.243-4.256 1.496-2.04 2.244-3.422 2.244-4.144 0-.721-.275-1.082-.823-1.082-2.742 0-5.683.945-8.823 2.837-3.141 1.891-5.995 3.882-8.562 5.973a62.304 62.304 0 0 0-7.29 7.018c-4.986 5.625-7.478 11.473-7.478 17.546 0 2.439.785 4.542 2.355 6.309 1.57 1.767 4.212 2.65 7.926 2.65 3.714 0 7.44-.435 11.18-1.306 3.738-.871 6.816-1.817 9.234-2.837 2.418-1.02 4.898-2.352 7.44-3.995 2.592-1.642 4.262-2.775 5.01-3.397a349.88 349.88 0 0 0 2.617-2.202 8.407 8.407 0 0 1 1.067-.785c4.333-8.194 10.383-19.306 18.15-33.336 16.451-29.716 25.063-45.035 25.836-45.955.772-.921 1.346-1.593 1.72-2.016a5.86 5.86 0 0 1 1.27-1.083c.474-.299.823-.498 1.048-.597.224-.1.673-.261 1.345-.485.673-.224 1.371-.46 2.094-.71a16.047 16.047 0 0 0 2.28-1.008 55.946 55.946 0 0 0 1.646-.896c.299-.174.685-.261 1.159-.261s.922.224 1.346.672c.424.448.636 1.02.636 1.717v.523c-.25.946-6.743 12.742-19.48 35.39-12.736 22.648-19.678 35.042-20.825 37.182 3.889-1.543 9.622-5.35 17.199-11.423 7.577-6.073 11.403-10.105 11.478-12.096.075-1.99.76-3.434 2.056-4.33 1.296-.896 2.705-1.344 4.225-1.344 1.52 0 2.817.51 3.888 1.53 1.072 1.02 1.583 2.688 1.533 5.003-.05 2.314-1.346 5.251-3.888 8.81-2.542 3.56-5.583 6.857-9.123 9.893-7.627 6.47-13.983 10.751-19.067 12.842 4.037 10.9 8.673 16.351 13.908 16.351 2.841-.398 6.33-2.713 10.468-6.944.39-.39.778-.78 1.162-1.171.427-.96.912-1.914 1.456-2.86a686.135 686.135 0 0 1 4.673-7.84 324.642 324.642 0 0 0 6.169-10.677c1.795-2.737 3.64-5.923 5.533-9.557 1.895-3.633 3.34-6.234 4.337-7.802.997-1.568 1.945-2.352 2.842-2.352s2.056.56 3.477 1.68c1.42 1.12 2.131 2.452 2.131 3.995 0 1.543-3.265 8.237-9.796 20.084-6.53 11.847-9.795 18.591-9.795 20.234 0 .398.2.597.598.597 1.346 0 4.325-1.904 8.936-5.712 4.61-3.808 9.708-8.698 15.291-14.671 6.232-6.62 11.117-12.668 14.656-18.143.449-.697.81-1.232 1.085-1.605a53.55 53.55 0 0 0 1.046-1.494c.424-.622.773-1.107 1.047-1.456l.972-1.231c.374-.473.71-.834 1.01-1.083.299-.249.623-.498.972-.747.548-.497 1.159-.746 1.832-.746s1.695.149 3.066.448c1.37.298 2.193.622 2.467.97.275.349.561.672.86.97.499.548.748 1.059.748 1.531 0 .473-.2 1.096-.598 1.867-.399.772-2.717 4.716-6.954 11.834-12.463 21.005-21.037 36.336-25.723 45.992 7.577-6.37 18.245-15.803 32.004-28.297.548-.448 1.097-.672 1.645-.672 1.545 0 2.318 2.365 2.318 7.093 0 1.394-.25 2.315-.748 2.763-14.905 11.448-28.938 24.24-42.098 38.376-.25.25-1.01 1.506-2.281 3.77a170.571 170.571 0 0 1-4.075 6.87c-1.446 2.314-3.228 4.517-5.347 6.608-2.119 2.09-3.888 3.222-5.309 3.397-1.42.174-2.33.261-2.73.261-4.586 0-6.879-2.315-6.879-6.944 0-5.425 2.817-11.771 8.45-19.039 2.144-2.737 4.836-5.686 8.076-8.847 3.24-3.16 5.01-4.953 5.309-5.376.299-.423 4.038-7.404 11.216-20.943-4.785 5.227-9.222 9.47-13.31 12.73-4.088 3.26-8.026 5.09-11.814 5.488h-.524c-1.944 0-3.863-.635-5.758-1.904-1.111-.745-1.897-1.82-2.356-3.225zM22.283 227.194c-1.645 1.195-2.467 2.526-2.467 3.995 0 1.468 1.096 2.202 3.29 2.202.947 0 2.168-.274 3.664-.821h.074c.25 0 .374.51.374 1.53s-.1 1.63-.299 1.83c-5.134 3.633-9.471 5.45-13.01 5.45-3.54 0-6.107-.995-7.703-2.986-1.595-1.991-2.392-4.592-2.392-7.803 0-3.21 1.77-6.62 5.309-10.228 3.539-3.61 8.3-6.944 14.282-10.005 5.982-3.061 13.397-5.588 22.246-7.579 8.848-1.99 18.793-2.986 29.835-2.986 11.042 0 20.277 2.153 27.704 6.458 7.428 4.306 11.142 9.209 11.142 14.709s-1.932 11.087-5.795 16.762c-3.864 5.674-8.699 10.614-14.507 14.82-5.807 4.206-12.25 7.653-19.33 10.341-7.078 2.688-13.409 4.032-18.992 4.032s-9.92-2.24-13.011-6.72c-7.577 11.896-12.712 20.022-15.404 24.378a1406.936 1406.936 0 0 1-6.842 10.975 441.187 441.187 0 0 0-4.337 6.98c-1.022 1.693-1.558 2.564-1.608 2.614-1.046 1.145-2.168 1.717-3.364 1.717l-3.664.672-1.795-.149H4.412c-2.941 0-4.412-.92-4.412-2.763 0-2.339 4.91-11.15 14.73-26.43 9.821-15.281 19.081-29.143 27.78-41.587 8.699-12.444 13.771-19.438 15.217-20.98 1.445-1.544 2.73-2.452 3.85-2.726 1.122-.274 2.93-.41 5.422-.41h3.739c.648 0 .972.51.972 1.53s-.125 1.73-.374 2.128c-4.387 6.122-12.313 18.218-23.779 36.286.4.797 1.06 1.294 1.982 1.493.922.2 1.907.3 2.954.3h2.168c4.586 0 9.546-1.108 14.88-3.323 5.334-2.215 10.02-4.866 14.058-7.952 4.038-3.086 7.415-6.309 10.132-9.669 2.717-3.36 4.076-6.234 4.076-8.623 0-2.39-.748-4.53-2.244-6.421-1.495-1.892-3.54-3.385-6.131-4.48-5.085-2.14-11.254-3.21-18.507-3.21-7.254 0-16.002 1.878-26.247 5.636-10.244 3.758-17.709 7.43-22.395 11.013zm117.697-1.866c0 2.837-1.321 5.686-3.963 8.548-2.642 2.863-5.396 4.294-8.263 4.294-2.866 0-4.3-1.494-4.3-4.48 0-2.987 1.26-5.836 3.777-8.55 2.517-2.712 5.296-4.068 8.337-4.068 1.346 0 2.418.373 3.216 1.12.797.746 1.196 1.792 1.196 3.136z" fill="#FFF" fill-rule="evenodd"/></svg>