<?xml version="1.0" encoding="UTF-8"?>
<svg width="300px" height="353px" viewBox="0 0 300 353" version="1.1" xmlns="http://www.w3.org/2000/svg" xmlns:xlink="http://www.w3.org/1999/xlink">
    <!-- Generator: Sketch 52.4 (67378) - http://www.bohemiancoding.com/sketch -->
    <title>picky_logo_black@1x</title>
    <desc>Created with Sketch.</desc>
    <g id="Overarching-Branding" stroke="none" stroke-width="1" fill="none" fill-rule="evenodd">
        <g id="Logo-Opt-C---2" transform="translate(-271.000000, -126.000000)" fill="#000000">
            <path d="M425.482498,145.092857 C499.763894,147.638571 556.115298,212.554286 549.71173,286.38 L531.781737,286.38 C531.781737,282.561429 531.781737,280.015714 531.781737,276.197143 C531.781737,224.01 499.763894,178.187143 452.377486,157.821429 C497.202467,185.824286 517.693886,235.465714 512.571032,286.38 L292.28827,286.38 C285.884702,212.554286 342.236106,147.638571 416.517502,145.092857 C412.675361,143.82 410.113933,140.001429 410.113933,136.182857 C410.113933,131.091429 415.236788,126 420.359643,126 C426.763212,126 430.605353,131.091429 430.605353,136.182857 C430.605353,140.001429 428.043926,143.82 425.482498,145.092857 Z M567.170213,303.738641 L274.829787,303.738641 C269.723404,303.738641 269.723404,292.32 274.829787,292.32 L567.170213,292.32 C572.276596,292.32 572.276596,303.738641 567.170213,303.738641 Z M500.821853,430.939945 C496.415825,434.259701 492.216352,435.919557 488.22333,435.919557 C485.082736,435.919557 482.590239,435.32226 480.745763,434.127649 C478.901287,432.933038 477.455638,431.937544 476.408774,431.141137 C475.361909,430.344729 474.290135,429.26213 473.19342,427.893304 C472.096704,426.524479 471.186943,425.392105 470.464108,424.496146 C469.741273,423.600188 468.918748,422.35582 467.99651,420.763006 C467.074273,419.170191 466.413761,418.037816 466.014955,417.365848 C465.61615,416.693879 465.030413,415.598835 464.257727,414.080684 C463.485041,412.562533 463.048854,411.728806 462.949153,411.57948 C462.05184,413.421172 461.054841,415.41216 459.958126,417.552505 C458.86141,419.692849 457.864411,421.683838 456.967099,423.52553 C456.069786,425.367222 455.247262,427.047118 454.499501,428.56527 C453.751741,430.083421 453.141079,431.340233 452.667498,432.335742 C452.193916,433.331251 451.932204,433.853885 451.882353,433.903661 C451.533398,434.700068 451.034899,435.098266 450.386839,435.098266 L445.601196,434.052987 C444.155526,433.90366 442.959127,432.982828 442.011964,431.290462 C441.762711,430.842483 441.600698,430.568722 441.525922,430.469171 C441.451146,430.369621 441.413759,430.245184 441.413759,430.095857 C441.413759,429.946531 441.463609,429.734989 441.56331,429.461224 C441.663011,429.187458 441.812561,428.814148 442.011964,428.341281 C442.211367,427.868414 442.385842,427.383111 442.535394,426.885356 C442.535649,426.884493 442.535906,426.883629 442.536162,426.882765 C442.338518,426.997119 442.13886,427.109977 441.937188,427.221339 C438.647042,429.038143 435.132621,430.61849 431.393819,431.962428 C423.966065,434.700078 417.647583,436.068882 412.438185,436.068882 C407.228788,436.068882 402.53043,434.364099 398.342971,430.95448 C396.548644,429.493457 395.138757,427.840519 394.113306,425.995656 C392.079164,428.200314 389.625649,430.127013 386.752742,431.775771 C381.418717,434.836961 376.782672,436.367534 372.844467,436.367534 C368.906261,436.367534 365.516465,435.048504 362.674975,432.410405 C359.833485,429.772305 358.412762,427.084471 358.412762,424.346821 C358.412762,421.609171 359.783635,417.627194 362.525424,412.400771 C365.267212,407.174348 368.008959,402.346201 370.750748,397.916185 C373.492536,393.486169 374.86341,391.084539 374.86341,390.711224 C374.86341,390.337908 374.352448,389.603731 373.330508,388.508671 C372.308569,387.41361 371.797607,386.604771 371.797607,386.082129 C371.797607,385.559487 372.831994,384.190682 374.900798,381.975674 C376.969602,379.760667 379.487024,377.570579 382.453141,375.405347 C385.419257,373.240114 387.68743,372.157514 389.257727,372.157514 C390.828024,372.157514 392.236285,372.85436 393.482552,374.248073 C394.72882,375.641786 395.351944,376.911041 395.351944,378.055877 C395.351944,379.200712 389.4198,389.976937 377.555334,410.384875 C377.405782,410.683528 376.99452,411.343042 376.321535,412.363439 C375.648551,413.383836 375.125126,414.230006 374.751246,414.901975 C374.377366,415.573944 373.941179,416.382783 373.442672,417.328516 C372.445658,419.319535 371.947159,420.986988 371.947159,422.330925 C371.947159,424.02329 373.093707,424.869461 375.386839,424.869461 C377.679972,424.869461 380.060307,424.085509 382.527916,422.517582 C384.995526,420.949655 387.126611,419.219984 388.921236,417.328516 C390.1878,415.969688 391.306864,414.794501 392.27843,413.802953 C392.763255,409.565086 394.061931,405.327245 396.174477,401.089355 C398.916265,395.589166 402.443149,390.761019 406.755234,386.604769 C411.06732,382.448518 416.07724,379.076281 421.785145,376.487958 C427.493049,373.899634 433.138556,372.605491 438.721834,372.605491 C441.413772,372.605491 443.831495,373.376999 445.975075,374.920039 C448.118655,376.463078 449.190429,378.578503 449.190429,381.266378 C449.190429,383.954252 447.856943,387.177165 445.18993,390.935212 C442.522918,394.693259 439.818558,396.572254 437.07677,396.572254 C433.886325,396.572254 432.291127,395.054126 432.291127,392.017823 C432.291127,391.221415 433.038876,389.802836 434.534397,387.762042 C436.029918,385.721249 436.777667,384.34 436.777667,383.618256 C436.777667,382.896512 436.503492,382.535645 435.955135,382.535645 C433.213346,382.535645 430.272199,383.481365 427.131605,385.372832 C423.991011,387.2643 421.137102,389.255288 418.569791,391.345857 C416.00248,393.436427 413.572295,395.775838 411.279163,398.364162 C406.294093,403.988789 403.801595,409.837317 403.801595,415.909923 C403.801595,418.34892 404.586732,420.451902 406.157029,422.218931 C407.727326,423.985959 410.369373,424.869461 414.08325,424.869461 C417.797127,424.869461 421.523411,424.433932 425.262213,423.562861 C429.001016,422.691791 432.07925,421.746071 434.497009,420.725674 C436.914768,419.705277 439.394803,418.373804 441.937188,416.731214 C444.529425,415.088624 446.199398,413.956249 446.947159,413.334056 C447.694919,412.711863 448.567293,411.977686 449.564307,411.131503 C449.945339,410.808115 450.300885,410.546523 450.630948,410.346726 C454.964213,402.153013 461.01444,391.040988 468.781655,377.010597 C485.232385,347.294649 493.843964,331.976482 494.61665,331.055636 C495.389336,330.13479 495.96261,329.462831 496.336491,329.03974 C496.710371,328.616648 497.134095,328.255782 497.607677,327.957129 C498.081259,327.658476 498.430208,327.459378 498.654536,327.359827 C498.878865,327.260276 499.327514,327.098508 500.000499,326.874518 C500.673483,326.650529 501.371382,326.414099 502.094217,326.165222 C502.817052,325.916344 503.577264,325.580365 504.374875,325.157274 C505.172487,324.734182 505.720836,324.435534 506.01994,324.26132 C506.319044,324.087106 506.705381,324 507.178963,324 C507.652545,324 508.101194,324.223986 508.524925,324.671965 C508.948656,325.119944 509.160518,325.692354 509.160518,326.38921 L509.160518,326.91185 C508.911265,327.857583 502.418309,339.65419 489.681456,362.302023 C476.944602,384.949856 470.002997,397.343759 468.856431,399.484104 C472.744785,397.941065 478.477529,394.133299 486.054835,388.060694 C493.632142,381.988088 497.458125,377.956336 497.532901,375.965318 C497.607677,373.9743 498.293114,372.530833 499.589232,371.634875 C500.88535,370.738917 502.293612,370.290944 503.814058,370.290944 C505.334504,370.290944 506.630603,370.801135 507.702393,371.821532 C508.774183,372.841929 509.285145,374.509381 509.235294,376.82394 C509.185443,379.138499 507.889345,382.075207 505.346959,385.634152 C502.804574,389.193097 499.763727,392.490672 496.224327,395.526975 C488.59717,401.997784 482.241302,406.27841 477.15653,408.368979 C481.194437,419.269804 485.830482,424.720135 491.064806,424.720135 C493.906295,424.321931 497.395792,422.007407 501.5334,417.776493 C501.923786,417.386696 502.31099,416.996106 502.695012,416.604723 C503.122159,415.644567 503.607337,414.691227 504.150548,413.744701 C505.047861,412.201662 506.605672,409.58849 508.824028,405.905106 C511.042384,402.221722 513.098694,398.66283 514.993021,395.228324 C516.787646,392.490674 518.632094,389.305092 520.526421,385.671484 C522.420747,382.037875 523.866396,379.437147 524.86341,377.86922 C525.860424,376.301293 526.807573,375.517341 527.704885,375.517341 C528.602198,375.517341 529.761209,376.077307 531.181954,377.197254 C532.602699,378.317202 533.313061,379.648676 533.313061,381.191715 C533.313061,382.734754 530.047889,389.429453 523.517448,401.276012 C516.987006,413.12257 513.721834,419.867044 513.721834,421.509634 C513.721834,421.907838 513.921234,422.106936 514.32004,422.106936 C515.666009,422.106936 518.644543,420.203054 523.255733,416.395231 C527.866922,412.587409 532.96408,407.697043 538.547358,401.723988 C544.778695,395.103853 549.66399,389.056225 553.20339,383.580925 C553.652046,382.884068 554.013458,382.34899 554.287637,381.975674 C554.561816,381.602358 554.910766,381.104611 555.334497,380.482418 C555.758227,379.860225 556.107177,379.374921 556.381356,379.026493 C556.655535,378.678065 556.979559,378.267424 557.35344,377.794557 C557.72732,377.32169 558.063807,376.960823 558.362911,376.711946 C558.662015,376.463069 558.98604,376.214195 559.334995,375.965318 C559.883353,375.467563 560.494015,375.21869 561.166999,375.21869 C561.839983,375.21869 562.861907,375.368014 564.232802,375.666667 C565.603696,375.965319 566.42622,376.288855 566.700399,376.637283 C566.974578,376.985711 567.261215,377.309247 567.560319,377.6079 C568.058826,378.15543 568.308076,378.665621 568.308076,379.138487 C568.308076,379.611354 568.108676,380.233538 567.70987,381.005058 C567.311065,381.776577 564.993042,385.721223 560.755733,392.839114 C548.293058,413.844357 539.718867,429.174968 535.032901,438.831407 C542.610207,432.460148 553.278097,423.02784 567.036889,410.5342 C567.585247,410.086221 568.133596,409.862235 568.681954,409.862235 C570.227326,409.862235 571,412.226534 571,416.955202 C571,418.348915 570.75075,419.269747 570.252243,419.717726 C555.346885,431.166082 541.314124,443.958182 528.153539,458.094412 C527.904286,458.34329 527.144074,459.600101 525.872881,461.864884 C524.601689,464.129668 523.243277,466.419304 521.797607,468.733863 C520.351937,471.048422 518.569801,473.250953 516.451147,475.341522 C514.332492,477.432091 512.562819,478.564466 511.142074,478.73868 C509.721329,478.912894 508.811567,479 508.412762,479 C503.826498,479 501.5334,476.685476 501.5334,472.056358 C501.5334,466.630834 504.349922,460.284558 509.983051,453.017341 C512.126631,450.279691 514.818528,447.330539 518.058824,444.169798 C521.299119,441.009056 523.068792,439.217167 523.367896,438.794075 C523.667,438.370984 527.405747,431.390081 534.584247,417.851156 C529.79858,423.077579 525.361935,427.320873 521.274177,430.581166 C517.18642,433.841458 513.248274,435.670679 509.459621,436.068882 L508.936191,436.068882 C506.992014,436.068882 505.072791,435.434255 503.178465,434.164981 C502.066656,433.420025 501.281121,432.345017 500.821853,430.939945 Z M293.283151,353.19316 C291.638078,354.387771 290.815553,355.719244 290.815553,357.18762 C290.815553,358.655996 291.912252,359.390173 294.105683,359.390173 C295.052846,359.390173 296.27417,359.116413 297.769691,358.568882 L297.844467,358.568882 C298.09372,358.568882 298.218345,359.079073 298.218345,360.09947 C298.218345,361.119867 298.118645,361.729607 297.919242,361.928709 C292.78462,365.562317 288.447675,367.379094 284.908275,367.379094 C281.368876,367.379094 278.801603,366.3836 277.206381,364.392582 C275.611159,362.401564 274.813559,359.800835 274.813559,356.590318 C274.813559,353.379801 276.583233,349.970233 280.122632,346.361513 C283.662032,342.752792 288.422702,339.417886 294.404786,336.356696 C300.386869,333.295505 307.802049,330.769438 316.650548,328.77842 C325.499047,326.787402 335.444112,325.791908 346.486042,325.791908 C357.527971,325.791908 366.762675,327.944664 374.190429,332.250241 C381.618183,336.555818 385.332004,341.458627 385.332004,346.958815 C385.332004,352.459003 383.400318,358.046214 379.536889,363.720617 C375.67346,369.395019 370.838015,374.335159 365.030409,378.541185 C359.222802,382.747211 352.779696,386.19411 345.700897,388.881985 C338.622098,391.569859 332.291155,392.913776 326.707876,392.913776 C321.124598,392.913776 316.787653,390.673914 313.696909,386.194123 C306.119603,398.090458 300.985058,406.216179 298.293121,410.571532 C295.601183,414.926884 293.320548,418.585326 291.451147,421.546965 C289.581745,424.508605 288.136097,426.835573 287.114158,428.527938 C286.092218,430.220304 285.556331,431.091361 285.506481,431.141137 C284.459616,432.285972 283.337992,432.858382 282.141575,432.858382 L278.477567,433.530347 L276.682951,433.381021 L275.411765,433.381021 C272.470574,433.381021 271,432.460189 271,430.618497 C271,428.279051 275.91022,419.468927 285.730808,404.187861 C295.551395,388.906796 304.811023,375.044539 313.50997,362.600674 C322.208917,350.15681 327.281149,343.163463 328.72682,341.620424 C330.17249,340.077385 331.456126,339.168996 332.577767,338.895231 C333.699407,338.621466 335.506468,338.484586 337.999003,338.484586 L341.737787,338.484586 C342.385846,338.484586 342.70987,338.994777 342.70987,340.015173 C342.70987,341.03557 342.585246,341.74486 342.335992,342.143064 C337.949131,348.265445 330.022989,360.3607 318.557328,378.429191 C318.956134,379.225598 319.616645,379.723345 320.538883,379.922447 C321.461121,380.121549 322.445658,380.221098 323.492522,380.221098 L325.661017,380.221098 C330.247281,380.221098 335.207351,379.113611 340.541376,376.898603 C345.875401,374.683595 350.561296,372.033092 354.599202,368.947013 C358.637109,365.860935 362.014443,362.638023 364.731306,359.278179 C367.448169,355.918336 368.80658,353.043846 368.80658,350.654624 C368.80658,348.265402 368.058831,346.12509 366.56331,344.233622 C365.067789,342.342155 363.023941,340.848914 360.431705,339.753854 C355.346934,337.613509 349.178002,336.543353 341.924726,336.543353 C334.671449,336.543353 325.922783,338.422348 315.678465,342.180395 C305.434146,345.938442 297.969116,349.609327 293.283151,353.19316 Z M410.98006,351.32659 C410.98006,354.163791 409.659036,357.013393 407.016949,359.875482 C404.374862,362.737571 401.620652,364.168593 398.754237,364.168593 C395.887822,364.168593 394.454636,362.675352 394.454636,359.688825 C394.454636,356.702297 395.713347,353.852695 398.230808,351.139933 C400.748268,348.42717 403.527403,347.070809 406.568295,347.070809 C407.914264,347.070809 408.986038,347.44412 409.783649,348.190751 C410.58126,348.937383 410.98006,349.982652 410.98006,351.32659 Z" id="Combined-Shape"></path>
        </g>
    </g>
</svg>