<?xml version="1.0" encoding="UTF-8"?>
<svg width="300px" height="155px" viewBox="0 0 300 155" version="1.1" xmlns="http://www.w3.org/2000/svg" xmlns:xlink="http://www.w3.org/1999/xlink">
    <!-- Generator: Sketch 52.4 (67378) - http://www.bohemiancoding.com/sketch -->
    <title>picky_logo_lone_black@1x</title>
    <desc>Created with Sketch.</desc>
    <g id="Overarching-Branding" stroke="none" stroke-width="1" fill="none" fill-rule="evenodd">
        <path d="M229.821853,106.939945 C225.415825,110.259701 221.216352,111.919557 217.22333,111.919557 C214.082736,111.919557 211.590239,111.32226 209.745763,110.127649 C207.901287,108.933038 206.455638,107.937544 205.408774,107.141137 C204.361909,106.344729 203.290135,105.26213 202.19342,103.893304 C201.096704,102.524479 200.186943,101.392105 199.464108,100.496146 C198.741273,99.6001882 197.918748,98.3558204 196.99651,96.7630058 C196.074273,95.1701911 195.413761,94.0378165 195.014955,93.3658478 C194.61615,92.6938791 194.030413,91.5988355 193.257727,90.080684 C192.485041,88.5625326 192.048854,87.7288061 191.949153,87.5794798 C191.05184,89.4211717 190.054841,91.4121601 188.958126,93.5525048 C187.86141,95.6928495 186.864411,97.6838379 185.967099,99.5255299 C185.069786,101.367222 184.247262,103.047118 183.499501,104.56527 C182.751741,106.083421 182.141079,107.340233 181.667498,108.335742 C181.193916,109.331251 180.932204,109.853885 180.882353,109.903661 C180.533398,110.700068 180.034899,111.098266 179.386839,111.098266 L174.601196,110.052987 C173.155526,109.90366 171.959127,108.982828 171.011964,107.290462 C170.762711,106.842483 170.600698,106.568722 170.525922,106.469171 C170.451146,106.369621 170.413759,106.245184 170.413759,106.095857 C170.413759,105.946531 170.463609,105.734989 170.56331,105.461224 C170.663011,105.187458 170.812561,104.814148 171.011964,104.341281 C171.211367,103.868414 171.385842,103.383111 171.535394,102.885356 C171.535649,102.884493 171.535906,102.883629 171.536162,102.882765 C171.338518,102.997119 171.13886,103.109977 170.937188,103.221339 C167.647042,105.038143 164.132621,106.61849 160.393819,107.962428 C152.966065,110.700078 146.647583,112.068882 141.438185,112.068882 C136.228788,112.068882 131.53043,110.364099 127.342971,106.95448 C125.548644,105.493457 124.138757,103.840519 123.113306,101.995656 C121.079164,104.200314 118.625649,106.127013 115.752742,107.775771 C110.418717,110.836961 105.782672,112.367534 101.844467,112.367534 C97.9062615,112.367534 94.5164649,111.048504 91.6749751,108.410405 C88.8334853,105.772305 87.4127617,103.084471 87.4127617,100.346821 C87.4127617,97.6091706 88.7836353,93.6271938 91.5254237,88.4007707 C94.2672121,83.1743477 97.0089594,78.3462007 99.7507478,73.916185 C102.492536,69.4861692 103.86341,67.0845394 103.86341,66.7112235 C103.86341,66.3379076 103.352448,65.6037306 102.330508,64.5086705 C101.308569,63.4136105 100.797607,62.6047714 100.797607,62.0821291 C100.797607,61.5594868 101.831994,60.1906822 103.900798,57.9756744 C105.969602,55.7606665 108.487024,53.5705792 111.453141,51.4053468 C114.419257,49.2401144 116.68743,48.1575145 118.257727,48.1575145 C119.828024,48.1575145 121.236285,48.8543604 122.482552,50.2480732 C123.72882,51.641786 124.351944,52.9110412 124.351944,54.0558767 C124.351944,55.2007122 118.4198,65.9769371 106.555334,86.3848748 C106.405782,86.6835275 105.99452,87.3430424 105.321535,88.3634393 C104.648551,89.3838362 104.125126,90.2300063 103.751246,90.901975 C103.377366,91.5739436 102.941179,92.3827827 102.442672,93.3285164 C101.445658,95.3195347 100.947159,96.9869875 100.947159,98.3309249 C100.947159,100.02329 102.093707,100.869461 104.386839,100.869461 C106.679972,100.869461 109.060307,100.085509 111.527916,98.5175819 C113.995526,96.949655 116.126611,95.2199838 117.921236,93.3285164 C119.1878,91.9696885 120.306864,90.7945012 121.27843,89.802953 C121.763255,85.5650855 123.061931,81.3272445 125.174477,77.0893545 C127.916265,71.5891665 131.443149,66.7610195 135.755234,62.6047688 C140.06732,58.4485181 145.07724,55.0762814 150.785145,52.4879576 C156.493049,49.8996338 162.138556,48.6054913 167.721834,48.6054913 C170.413772,48.6054913 172.831495,49.3769993 174.975075,50.9200385 C177.118655,52.4630777 178.190429,54.5785029 178.190429,57.2663776 C178.190429,59.9542524 176.856943,63.1771649 174.18993,66.9352119 C171.522918,70.693259 168.818558,72.5722543 166.07677,72.5722543 C162.886325,72.5722543 161.291127,71.0541257 161.291127,68.0178227 C161.291127,67.2214154 162.038876,65.8028362 163.534397,63.7620424 C165.029918,61.7212486 165.777667,60.3400004 165.777667,59.6182563 C165.777667,58.8965121 165.503492,58.5356455 164.955135,58.5356455 C162.213346,58.5356455 159.272199,59.481365 156.131605,61.3728324 C152.991011,63.2642998 150.137102,65.2552882 147.569791,67.3458574 C145.00248,69.4364266 142.572295,71.7758381 140.279163,74.3641618 C135.294093,79.9887886 132.801595,85.8373171 132.801595,91.9099229 C132.801595,94.3489204 133.586732,96.4519019 135.157029,98.2189306 C136.727326,99.9859594 139.369373,100.869461 143.08325,100.869461 C146.797127,100.869461 150.523411,100.433932 154.262213,99.5628613 C158.001016,98.6917908 161.07925,97.7460713 163.497009,96.7256744 C165.914768,95.7052775 168.394803,94.373804 170.937188,92.7312139 C173.529425,91.0886238 175.199398,89.9562491 175.947159,89.3340559 C176.694919,88.7118627 177.567293,87.9776857 178.564307,87.1315029 C178.945339,86.8081147 179.300885,86.5465226 179.630948,86.3467258 C183.964213,78.1530129 190.01444,67.0409876 197.781655,53.0105973 C214.232385,23.2946491 222.843964,7.9764818 223.61665,7.05563584 C224.389336,6.13478987 224.96261,5.46283127 225.336491,5.03973988 C225.710371,4.61664849 226.134095,4.25578184 226.607677,3.95712909 C227.081259,3.65847635 227.430208,3.4593775 227.654536,3.35982659 C227.878865,3.26027567 228.327514,3.09850786 229.000499,2.8745183 C229.673483,2.65052875 230.371382,2.41409887 231.094217,2.16522158 C231.817052,1.91634429 232.577264,1.58036499 233.374875,1.1572736 C234.172487,0.734182213 234.720836,0.435533947 235.01994,0.261319846 C235.319044,0.0871057442 235.705381,0 236.178963,0 C236.652545,0 237.101194,0.223986199 237.524925,0.671965318 C237.948656,1.11994444 238.160518,1.69235361 238.160518,2.38921002 L238.160518,2.91184971 C237.911265,3.85758341 231.418309,15.6541899 218.681456,38.3020231 C205.944602,60.9498563 199.002997,73.3437594 197.856431,75.484104 C201.744785,73.9410649 207.477529,70.1332995 215.054835,64.0606936 C222.632142,57.9880878 226.458125,53.9563362 226.532901,51.9653179 C226.607677,49.9742996 227.293114,48.530833 228.589232,47.6348748 C229.88535,46.7389165 231.293612,46.2909441 232.814058,46.2909441 C234.334504,46.2909441 235.630603,46.8011349 236.702393,47.8215318 C237.774183,48.8419287 238.285145,50.5093815 238.235294,52.8239403 C238.185443,55.138499 236.889345,58.075207 234.346959,61.6341522 C231.804574,65.1930974 228.763727,68.490672 225.224327,71.526975 C217.59717,77.9977844 211.241302,82.2784096 206.15653,84.3689788 C210.194437,95.269804 214.830482,100.720135 220.064806,100.720135 C222.906295,100.321931 226.395792,98.0074072 230.5334,93.7764933 C230.923786,93.3866959 231.31099,92.9961059 231.695012,92.6047226 C232.122159,91.6445674 232.607337,90.6912275 233.150548,89.7447013 C234.047861,88.2016622 235.605672,85.5884898 237.824028,81.905106 C240.042384,78.2217221 242.098694,74.6628303 243.993021,71.2283237 C245.787646,68.4906735 247.632094,65.305092 249.526421,61.6714836 C251.420747,58.0378752 252.866396,55.4371466 253.86341,53.8692197 C254.860424,52.3012927 255.807573,51.517341 256.704885,51.517341 C257.602198,51.517341 258.761209,52.0773065 260.181954,53.1972543 C261.602699,54.3172021 262.313061,55.6486757 262.313061,57.1917148 C262.313061,58.734754 259.047889,65.4294526 252.517448,77.2760116 C245.987006,89.1225705 242.721834,95.8670438 242.721834,97.5096339 C242.721834,97.9078376 242.921234,98.1069364 243.32004,98.1069364 C244.666009,98.1069364 247.644543,96.2030537 252.255733,92.3952312 C256.866922,88.5874087 261.96408,83.6970434 267.547358,77.7239884 C273.778695,71.1038526 278.66399,65.0562252 282.20339,59.5809249 C282.652046,58.8840684 283.013458,58.3489903 283.287637,57.9756744 C283.561816,57.6023584 283.910766,57.1046113 284.334497,56.4824181 C284.758227,55.8602249 285.107177,55.3749215 285.381356,55.0264933 C285.655535,54.6780651 285.979559,54.2674237 286.35344,53.7945568 C286.72732,53.32169 287.063807,52.9608233 287.362911,52.7119461 C287.662015,52.4630688 287.98604,52.2141952 288.334995,51.9653179 C288.883353,51.4675633 289.494015,51.2186898 290.166999,51.2186898 C290.839983,51.2186898 291.861907,51.3680139 293.232802,51.6666667 C294.603696,51.9653194 295.42622,52.288855 295.700399,52.6372832 C295.974578,52.9857114 296.261215,53.3092471 296.560319,53.6078998 C297.058826,54.1554298 297.308076,54.6656206 297.308076,55.1384875 C297.308076,55.6113543 297.108676,56.2335382 296.70987,57.0050578 C296.311065,57.7765774 293.993042,61.7212232 289.755733,68.8391137 C277.293058,89.8443568 268.718867,105.174968 264.032901,114.831407 C271.610207,108.460148 282.278097,99.0278402 296.036889,86.5342004 C296.585247,86.0862213 297.133596,85.8622351 297.681954,85.8622351 C299.227326,85.8622351 300,88.2265338 300,92.9552023 C300,94.3489151 299.75075,95.2697473 299.252243,95.7177264 C284.346885,107.166082 270.314124,119.958182 257.153539,134.094412 C256.904286,134.34329 256.144074,135.600101 254.872881,137.864884 C253.601689,140.129668 252.243277,142.419304 250.797607,144.733863 C249.351937,147.048422 247.569801,149.250953 245.451147,151.341522 C243.332492,153.432091 241.562819,154.564466 240.142074,154.73868 C238.721329,154.912894 237.811567,155 237.412762,155 C232.826498,155 230.5334,152.685476 230.5334,148.056358 C230.5334,142.630834 233.349922,136.284558 238.983051,129.017341 C241.126631,126.279691 243.818528,123.330539 247.058824,120.169798 C250.299119,117.009056 252.068792,115.217167 252.367896,114.794075 C252.667,114.370984 256.405747,107.390081 263.584247,93.8511561 C258.79858,99.0775791 254.361935,103.320873 250.274177,106.581166 C246.18642,109.841458 242.248274,111.670679 238.459621,112.068882 L237.936191,112.068882 C235.992014,112.068882 234.072791,111.434255 232.178465,110.164981 C231.066656,109.420025 230.281121,108.345017 229.821853,106.939945 Z M22.2831505,29.1931599 C20.6380775,30.3877709 19.8155533,31.7192444 19.8155533,33.1876204 C19.8155533,34.6559964 20.9122522,35.3901734 23.105683,35.3901734 C24.0528462,35.3901734 25.27417,35.1164125 26.7696909,34.5688825 L26.8444666,34.5688825 C27.0937201,34.5688825 27.218345,35.0790733 27.218345,36.0994701 C27.218345,37.119867 27.1186451,37.7296072 26.9192423,37.9287091 C21.7846204,41.5623175 17.4476747,43.3790944 13.9082752,43.3790944 C10.3688756,43.3790944 7.80160319,42.3836002 6.20638086,40.3925819 C4.61115852,38.4015636 3.81355932,35.8008349 3.81355932,32.5903179 C3.81355932,29.3798009 5.58323255,25.9702332 9.1226321,22.3615125 C12.6620317,18.7527918 17.4227019,15.4178862 23.4047856,12.3566956 C29.3868694,9.29550493 36.8020495,6.76943834 45.6505484,4.77842004 C54.4990472,2.78740173 64.4441123,1.79190751 75.4860419,1.79190751 C86.5279715,1.79190751 95.7626747,3.94466376 103.190429,8.25024085 C110.618183,12.5558179 114.332004,17.458627 114.332004,22.958815 C114.332004,28.4590031 112.400318,34.0462144 108.536889,39.7206166 C104.67346,45.3950187 99.8380151,50.3351588 94.0304088,54.541185 C88.2228025,58.7472111 81.7796964,62.1941099 74.7008973,64.8819846 C67.6220982,67.5698593 61.2911545,68.9137765 55.7078764,68.9137765 C50.1245982,68.9137765 45.7876525,66.6739145 42.6969093,62.1941233 C35.1196032,74.0904577 29.9850583,82.2161793 27.2931206,86.5715318 C24.601183,90.9268843 22.3205477,94.5853256 20.4511466,97.5469653 C18.5817454,100.508605 17.1360968,102.835573 16.1141575,104.527938 C15.0922182,106.220304 14.5563313,107.091361 14.5064806,107.141137 C13.4596159,108.285972 12.337992,108.858382 11.1415753,108.858382 L7.4775673,109.530347 L5.68295115,109.381021 L4.41176471,109.381021 C1.47057353,109.381021 0,108.460189 0,106.618497 C0,104.279051 4.91022009,95.4689268 14.7308076,80.1878613 C24.5513951,64.9067958 33.8110233,51.0445388 42.5099701,38.6006744 C51.2089169,26.15681 56.2811493,19.1634631 57.7268195,17.6204239 C59.1724898,16.0773847 60.456126,15.1689962 61.5777667,14.8952312 C62.6994074,14.6214662 64.5064681,14.4845857 66.999003,14.4845857 L70.7377866,14.4845857 C71.3858457,14.4845857 71.7098704,14.9947765 71.7098704,16.0151734 C71.7098704,17.0355703 71.5852455,17.7448599 71.335992,18.1430636 C66.9491306,24.2654449 59.0229885,36.3606996 47.557328,54.4291908 C47.9561336,55.2255981 48.6166454,55.7233452 49.5388833,55.922447 C50.4611213,56.1215488 51.4456578,56.2210983 52.4925224,56.2210983 L54.6610169,56.2210983 C59.2472812,56.2210983 64.2073512,55.1136109 69.5413759,52.8986031 C74.8754005,50.6835952 79.5612959,48.0330919 83.5992024,44.9470135 C87.6371089,41.8609351 91.014443,38.6380226 93.7313061,35.2781792 C96.4481691,31.9183358 97.8065803,29.0438462 97.8065803,26.6546243 C97.8065803,24.2654023 97.058831,22.1250897 95.5633101,20.2336224 C94.0677891,18.342155 92.0239412,16.8489136 89.4317049,15.7538536 C84.3469337,13.6135089 78.1780024,12.5433526 70.9247258,12.5433526 C63.6714493,12.5433526 54.922783,14.4223479 44.6784646,18.180395 C34.4341462,21.938442 26.9691162,25.609327 22.2831505,29.1931599 Z M139.98006,27.3265896 C139.98006,30.1637907 138.659036,33.0133929 136.016949,35.8754817 C133.374862,38.7375705 130.620652,40.1685934 127.754237,40.1685934 C124.887822,40.1685934 123.454636,38.6753521 123.454636,35.6888247 C123.454636,32.7022972 124.713347,29.852695 127.230808,27.1399326 C129.748268,24.4271701 132.527403,23.0708092 135.568295,23.0708092 C136.914264,23.0708092 137.986038,23.4441196 138.783649,24.1907514 C139.58126,24.9373833 139.98006,25.9826522 139.98006,27.3265896 Z" id="Combined-Shape-Copy-6" fill="#000000"></path>
    </g>
</svg>